<svg width="64" height="64" viewBox="0 0 64 64" fill="none" xmlns="http://www.w3.org/2000/svg">
<path d="M54.1698 43.6618C52.1447 45.6896 49.6865 47.1231 47.0086 47.8799V16.1228C49.6865 16.8782 52.1447 18.3118 54.1698 20.3356C57.2821 23.4505 58.9954 27.5954 58.9954 31.9987C58.9954 36.4073 57.2821 40.5495 54.1698 43.6618ZM21.5027 33.4056V16.4345L42.4987 30.6011V47.5681L21.5027 33.4056ZM16.9994 47.8799C14.3201 47.1271 11.8607 45.6896 9.83689 43.6618C6.72193 40.5495 5.00457 36.4073 5.00457 32.0013C5.00457 27.5954 6.72193 23.4505 9.83689 20.3356C11.8607 18.3118 14.3201 16.8782 16.9994 16.1228V47.8799ZM42.4987 11V25.1652L21.5027 11.0013C9.9035 11.0013 0.5 20.4035 0.5 32.0013C0.5 43.6018 9.9035 53 21.5027 53V38.8348L42.4987 53C54.1005 53 63.504 43.6018 63.504 31.9987C63.504 20.4035 54.1005 11 42.4987 11Z" fill="white"/>
</svg>
